<svg xmlns="http://www.w3.org/2000/svg" version="1.1" xmlns:xlink="http://www.w3.org/1999/xlink" xmlns:svgjs="http://svgjs.com/svgjs" width="373.000000pt" height="357.000000pt"><svg version="1.0" xmlns="http://www.w3.org/2000/svg" width="373.000000pt" height="357.000000pt" viewBox="0 0 373.000000 357.000000" preserveAspectRatio="xMidYMid meet">

<g transform="translate(0.000000,357.000000) scale(0.100000,-0.100000)" fill="#000000" stroke="none">
<path d="M1774 3233 c-255 -140 -1238 -722 -1247 -738 -8 -14 -11 -249 -11
-797 l-1 -777 25 -25 c32 -32 1253 -736 1296 -748 26 -7 41 -5 66 8 123 63
1229 713 1253 736 l30 28 3 779 2 779 -22 26 c-34 39 -1265 747 -1308 753 -26
3 -49 -3 -86 -24z m606 -536 l385 -214 0 -572 0 -573 -25 -20 c-14 -11 -51
-35 -84 -53 l-58 -32 81 -47 c57 -34 83 -55 87 -72 15 -59 10 -62 -338 -265
-526 -305 -551 -319 -573 -319 -12 0 -219 114 -461 254 -469 270 -483 281
-454 333 16 28 180 129 648 398 l261 150 1 663 0 663 73 -40 c39 -22 245 -136
457 -254z"></path>
</g>
</svg><style>@media (prefers-color-scheme: light) { :root { filter: none; } }
</style></svg>